<svg id="Layer_1" data-name="Layer 1" xmlns="http://www.w3.org/2000/svg" viewBox="0 0 503 503.04"><defs><style>.cls-1{fill:#fff;}</style></defs><path class="cls-1" d="M161.5.6c-16.4.7-36.3,2.6-46.5,4.5C56.3,16.4,16.4,56.3,5.2,115,.9,137.4.5,148.3.5,252S.9,366.6,5.2,389C16.4,447.7,56.3,487.6,115,498.8c22.4,4.3,33.3,4.7,137,4.7s114.6-.4,137-4.7c58.7-11.2,98.6-51.1,109.8-109.8,4.3-22.4,4.7-33.3,4.7-137s-.4-114.6-4.7-137C487.6,56.1,447.4,16.1,388.4,5.1,366.9,1.1,358.5.8,262.5.5,211.4.4,165.9.5,161.5.6ZM366,47.9c20.5,2.7,35.8,7.2,47.7,14.2,7.5,4.4,23.8,20.7,28.2,28.2,7.3,12.4,11.7,27.8,14.3,49.2,1.9,15.8,1.9,209.2,0,225-2.6,21.4-7,36.8-14.3,49.2-4.4,7.5-20.7,23.8-28.2,28.2-12.4,7.3-27.8,11.7-49.2,14.3-15.8,1.9-209.2,1.9-225,0-21.4-2.6-36.8-7-49.2-14.3-7.5-4.4-23.8-20.7-28.2-28.2-7.3-12.4-11.7-27.8-14.3-49.2-1.9-15.8-1.9-209.2,0-225,1.8-15.4,3.9-24.6,7.6-34.7,4.3-11.5,8.7-18.5,17-27.5C91,57.3,112.2,49.3,152,47,173.8,45.8,355.7,46.5,366,47.9Z" transform="translate(-0.5 -0.46)"/><path class="cls-1" d="M376.5,88.7c-7.5,2.5-16.5,11.9-18.9,19.7-7.3,23.3,14.7,45.3,38,38,8.4-2.6,17.2-11.5,19.8-19.8a31,31,0,0,0-1.5-22c-2.5-5.4-10.2-12.9-15.5-15.1C392.5,87,382.5,86.7,376.5,88.7Z" transform="translate(-0.5 -0.46)"/><path class="cls-1" d="M240,123a129.54,129.54,0,0,0-27.3,252.4A129.51,129.51,0,0,0,375.4,212.7a130.65,130.65,0,0,0-84.1-84.1C275.4,123.6,255.2,121.4,240,123Zm32,47.6c9.1,2.2,25.3,10.3,32.8,16.4A84.74,84.74,0,0,1,327,215.5c6.6,13.7,8.3,21.2,8.3,36.5s-1.7,22.8-8.3,36.5c-8.5,17.7-20.8,29.9-38.5,38.5-13.7,6.6-21.1,8.3-36.5,8.3s-22.8-1.7-36.5-8.3c-17.7-8.6-30-20.8-38.5-38.5a113.59,113.59,0,0,1-6.6-17c-2.4-9.6-2.4-29.4,0-39s10.5-25.8,16.6-33.3c13-15.8,33.4-27.4,53.1-30.2C248.4,167.9,263.7,168.6,272,170.6Z" transform="translate(-0.5 -0.46)"/></svg>