<svg id="Layer_1" data-name="Layer 1" xmlns="http://www.w3.org/2000/svg" viewBox="0 0 173.13 185.61"><defs><style>.cls-1{fill:#fff;}</style></defs><path class="cls-1" d="M173.12,60.94c0-40.27-26.38-52.07-26.38-52.07C133.44,2.76,110.6.19,86.87,0h-.58C62.56.19,39.74,2.76,26.44,8.87c0,0-26.39,11.8-26.39,52.07,0,9.22-.18,20.24.12,31.93,1,39.38,7.22,78.19,43.62,87.82a137.86,137.86,0,0,0,42.81,4.74c21.05-1.17,32.86-7.51,32.86-7.51l-.69-15.28a107,107,0,0,1-31.94,4.17c-16.73-.58-34.4-1.81-37.11-22.36a42,42,0,0,1-.38-5.76,215.72,215.72,0,0,0,37.26,5c12.73.59,24.67-.74,36.8-2.19,23.25-2.78,43.5-17.11,46-30.2C173.46,90.64,173.12,60.94,173.12,60.94ZM142,112.81H122.69V65.49c0-10-4.19-15-12.59-15-9.28,0-13.93,6-13.93,17.88v25.9H77V68.34C77,56.46,72.31,50.46,63,50.46c-8.39,0-12.59,5.06-12.59,15v47.32H31.12V64.06q0-14.94,7.64-23.74c5.25-5.86,12.13-8.86,20.68-8.86,9.88,0,17.37,3.8,22.31,11.4l4.82,8.06,4.81-8.06c5-7.6,12.43-11.4,22.32-11.4,8.54,0,15.42,3,20.68,8.86Q142,49.11,142,64.06Z" transform="translate(0 0)"/></svg>