<svg xmlns="http://www.w3.org/2000/svg" viewBox="0 0 103.3 103.3"><defs><style>.cls-1{fill:#fff;}</style></defs><g id="Layer_1" data-name="Layer 1"><path class="cls-1" d="M80.3,8.67l.77.54Z"/><path class="cls-1" d="M86.23,13.29l.21.18Z"/><path class="cls-1" d="M88.24,15.2l-.12-.12Z"/><path class="cls-1" d="M43.75,10.11S35.59,12.35,36.22,21c.56,7.65,4.65,11.85,13.14,8.65s9.94-5.44,7.85-11.85S52.75,7.11,43.75,10.11Zm9,5.42a.89.89,0,0,1-.39.12,1.09,1.09,0,0,1-1-.56,6.53,6.53,0,0,0-.64-1,1.09,1.09,0,0,1,0-1.52,1.08,1.08,0,0,1,1.49,0,6.82,6.82,0,0,1,1,1.49A1.09,1.09,0,0,1,52.75,15.53ZM55.25,19a6.49,6.49,0,0,1,.44,4.23,1.08,1.08,0,0,1-1.06.88h-.21a1.09,1.09,0,0,1-.86-1.27,4.32,4.32,0,0,0-.31-3,1.09,1.09,0,0,1,2-.84Z"/><path class="cls-1" d="M89.49,16.51a31.3,31.3,0,0,1-3.44,13.84c-2.36,4.12-9.82,11.92-14,15.92a2.57,2.57,0,0,0-.35.39A3.11,3.11,0,0,0,72.24,51c4.29,3.19,11.44,9.26,12,14.73.76,7.9,6.89,17.3,7.21,17.9A2.83,2.83,0,0,1,91,85.06a52.05,52.05,0,0,1-8.74,8.17,10.49,10.49,0,0,1-3.47.54c-8.37-.17-6.57-8-7.37-12.5S68.06,68,59.73,69.27c0,0,2.08,18.26-6.41,23.87s-25.15,9.77-28.19-1.76S35.72,81.12,36.68,81.12s9.61-2.72,5.45-10.89-8.65-15.06-8.65-15.06A48.87,48.87,0,0,0,21.71,60.7a23.34,23.34,0,0,0-4.57,3.53C12.56,69,7.72,71.6,4.43,70.07a6,6,0,0,1-1.38-.95,51.38,51.38,0,0,1-2.62-11c1.85-2.76,9-8.77,15.91-12.51,5.61-3,11.78-4.25,13.42-5.83-2.89-9.62-8.1-24.55,3.58-31.55,9.19-5.5,21.28-8.84,25.93,4.5s3.45,16.34,5.45,16.34,6.92,1,9-7.53C75.25,15.33,76.19,10,79.64,8.25a51.69,51.69,0,1,0,9.85,8.26ZM81.08,51.13a1.11,1.11,0,1,1-2.17-.48h0a1.11,1.11,0,0,1,2.17.48ZM89,39.49,88.44,42l-1.17-2.32-2.55-.53L87,38l.52-2.55,1.18,2.32,2.55.52ZM66.13,13.07a1,1,0,0,1,1.31.3h0a1,1,0,1,1-1.31-.3ZM19.18,21.16h0a.52.52,0,0,1,.63-.38.52.52,0,0,1-.24,1A.52.52,0,0,1,19.18,21.16ZM10.61,37.92a1,1,0,0,1,1.31.3h0a1,1,0,1,1-1.31-.3ZM21.27,70.81a.73.73,0,1,1,.59-.85h0A.73.73,0,0,1,21.27,70.81ZM64,88a.86.86,0,1,1-.68-1h0A.87.87,0,0,1,64,88Z"/></g></svg>