<svg xmlns="http://www.w3.org/2000/svg" viewBox="0 0 50 50"><defs><style>.cls-1,.cls-2{fill:#fff;}.cls-1{fill-rule:evenodd;}</style></defs><g id="Layer_5" data-name="Layer 5"><path class="cls-1" d="M34.39,21.91a7.63,7.63,0,0,1-7.75,7.51H22.1L15.61,35.6V18.73a4.4,4.4,0,0,1,4.47-4.33h6.56A7.63,7.63,0,0,1,34.39,21.91Z"/><path class="cls-1" d="M25,0A25,25,0,1,0,50,25,25,25,0,0,0,25,0Zm1.64,32.42H23.3l-5.62,5.35L12.61,42.6V18.73a7.41,7.41,0,0,1,7.47-7.33h6.56A10.64,10.64,0,0,1,37.39,21.91,10.64,10.64,0,0,1,26.64,32.42Z"/></g><g id="Layer_4" data-name="Layer 4"><path class="cls-2" d="M34.39,21.91a7.63,7.63,0,0,1-7.75,7.51H22.1L15.61,35.6V18.73a4.4,4.4,0,0,1,4.47-4.33h6.56A7.63,7.63,0,0,1,34.39,21.91Z"/></g></svg>